# xmcd
#
# Track frame offsets: 
#        150
#        20826
#        42163
#        65915
#        82017
#        100270
#        123788
#        144403
#        163454
#        182478
#        207678
#
# Disc length: 3108 seconds
#
# Revision: 1
# Processed by: cddbd v1.5.1PL0 Copyright (c) Steve Scherf et al.
# Submitted via: ExactAudioCopy v0.95a4
#
DISCID=a40c220b
DTITLE=Bowes and Morley - Mo's Barbeque
DYEAR=2004
DGENRE=Hard Rock
TTITLE0=Desire
TTITLE1=Living For The City
TTITLE2=On A Day Like Today
TTITLE3=Why Did You Do It?
TTITLE4=Since I Left Her
TTITLE5=Come Together In The Morning
TTITLE6=Waiting For The Sky To Fall
TTITLE7=Illogical
TTITLE8=How Could You ?
TTITLE9=That's Not Love
TTITLE10=I Can't Stand The Rain
EXTD=YEAR: 2004
EXTT0=
EXTT1=
EXTT2=
EXTT3=
EXTT4=
EXTT5=
EXTT6=
EXTT7=
EXTT8=
EXTT9=
EXTT10=
PLAYORDER=
